<?xml version="1.0" ?><svg data-name="Layer 1" id="Layer_1" viewBox="0 0 128 128" xmlns="http://www.w3.org/2000/svg"><defs><style>.cls-1{fill:#9b8373;}.cls-2{fill:#d14a4a;}.cls-3{fill:#dd5e58;}.cls-4{fill:#ad9584;}.cls-5{fill:#847164;}</style></defs><title/><path class="cls-1" d="M87.65771,62.60205a10.59807,10.59807,0,0,0-14.89086,6.61206,32.06465,32.06465,0,0,0-8.21558-7.6272,1.002,1.002,0,0,0-1.083,0,32.06715,32.06715,0,0,0-8.21545,7.62751,10.59813,10.59813,0,0,0-14.891-6.61237.9997.9997,0,0,0-.54981,1.042A10.56531,10.56531,0,0,0,53.163,72.35,31.88695,31.88695,0,0,0,63.46826,115.252a1.00065,1.00065,0,0,0,1.083,0A31.88751,31.88751,0,0,0,74.85687,72.3501,10.58212,10.58212,0,0,0,88.20752,63.644.9997.9997,0,0,0,87.65771,62.60205Z"/><path class="cls-1" d="M101.88771,38.10358a2.50067,2.50067,0,0,0-3.19092,1.52294,19.85283,19.85283,0,0,1-8.64551,10.50782,37.4825,37.4825,0,0,0,3.49756-5.15869l.00391-.00684A37.51839,37.51839,0,0,0,96.06935,13.546a2.50019,2.50019,0,1,0-4.69141,1.73047,32.50224,32.50224,0,0,1,2.0127,11.25927q0,1.33082-.10938,2.65772c-.02685-.07568-.0542-.15088-.082-.22656a24.73777,24.73777,0,0,0-5.18945-8.41358,2.5,2.5,0,1,0-3.64649,3.4209A19.8363,19.8363,0,0,1,89.04835,42.775a32.57962,32.57962,0,0,1-11.792,11.88281,25.8821,25.8821,0,0,0,3.4331-24.30761,2.50019,2.50019,0,1,0-4.6914,1.73047A20.89913,20.89913,0,0,1,64.00978,58.7818,20.89909,20.89909,0,0,1,52.0215,32.08063a2.50019,2.50019,0,0,0-4.69141-1.73047,25.80214,25.80214,0,0,0-1.603,8.94775A26.062,26.062,0,0,0,50.7632,54.65777,32.57964,32.57964,0,0,1,38.9712,42.775a19.92671,19.92671,0,0,1,4.68506-18.80078,2.5,2.5,0,0,0-3.64648-3.4209,24.73779,24.73779,0,0,0-5.18946,8.41358q-.04174.11278-.082.22656-.10912-1.32569-.10937-2.65772a32.502,32.502,0,0,1,2.01269-11.25927,2.50019,2.50019,0,1,0-4.6914-1.73047,37.51534,37.51534,0,0,0,2.439,31.2832,2.45241,2.45241,0,0,0,.17969.31934,37.44365,37.44365,0,0,0,3.39941,4.98584,19.85243,19.85243,0,0,1-8.6455-10.50782,2.50013,2.50013,0,1,0-4.71387,1.668A24.83912,24.83912,0,0,0,39.39454,56.32916l.0708.02637h.00049a24.90727,24.90727,0,0,0,6.96289,1.48877,37.49466,37.49466,0,0,0,7.76465,3.94336l2.54437.93847a2.4723,2.4723,0,0,0,.04108,1.24317v.00049l.001.00341v.00049l.00146.00342v.00049l.001.00342v.00049l.00146.00341v.00049l.001.00342v.00049l.00146.0039.00147.0044.001.0039.00146.00342.001.00391.00146.00391.001.00439.00146.00391.00147.00341.001.00391.00147.00391.001.0039.00146.00391.00147.00391.001.0039.00147.00391.00146.0039.001.00342.00146.00391.00147.0039.00146.00391.001.00391.00146.00341.00147.00391.00146.0044.00049.001.001.00391.00146.0039.00147.00342.001.00342.00048.00049.00147.00391.001.0039.00146.00342v.00049l.41455,1.123.00049.00245a2.49913,2.49913,0,0,0,3.21094,1.48046l3.55664-1.31182,3.55664,1.31182a2.49459,2.49459,0,0,0,1.82568-.03759l.00293-.001c.02783-.01172.05567-.02393.0835-.03711.03076-.01367.061-.02881.09082-.04394a2.49289,2.49289,0,0,0,1.208-1.36084l.00048-.00245.41455-1.123v-.00049l.00147-.00342.001-.0039.00146-.00391.00049-.00049.001-.00342.00048-.001.00147-.00391.00146-.00391.001-.00341.00146-.0044.00147-.00391.00146-.00341.001-.00391L71.209,64.067l.00146-.0039.00147-.00391.001-.00342.00147-.0039.00146-.00391.001-.0039.00146-.00391.00147-.00391.001-.0039.00147-.00391.001-.00391.00146-.00341.00147-.00391.001-.00439.00147-.00391c-.00049-.00537.00146-.00244.001-.00391l.00147-.00342.001-.0039.00146-.0044.00146-.0039v-.00049l.001-.00342v-.00049l.00147-.00341V63.981l.001-.00342v-.00049l.00147-.00342V63.9732l.001-.00341V63.9693a2.4723,2.4723,0,0,0,.04108-1.24317l2.54437-.93847a37.51822,37.51822,0,0,0,7.76465-3.94336,24.92514,24.92514,0,0,0,21.81983-16.54981,2.49886,2.49886,0,0,0-1.52295-3.19091Z"/><rect class="cls-2" height="10" transform="translate(142.35044 -4.67365) rotate(73.25623)" width="30.75" x="58.94353" y="88.4025"/><path class="cls-3" d="M64.00978,59.125A33.43426,33.43426,0,0,0,48.9573,92.00041a44.06032,44.06032,0,0,0,3.04427,4.09592,15.6262,15.6262,0,0,0,11.98862,5.579h.00159A15.613,15.613,0,0,0,75.93964,96.136a44.10963,44.10963,0,0,0,3.13386-4.20458A33.45134,33.45134,0,0,0,64.00978,59.125Z"/><path class="cls-4" d="M49.35584,70.23888A34.73547,34.73547,0,0,0,57.52635,92.6687a8.44924,8.44924,0,0,0,12.90526.024A34.736,34.736,0,0,0,78.66371,70.19q0-.54888-.01683-1.0937c-.57447-18.64356-28.67132-18.64465-29.2726-.00193Q49.35589,69.66433,49.35584,70.23888Z"/><path class="cls-5" d="M59.94044,73.10651c.03955,0,.07959-.00147.12012-.00489A1.4996,1.4996,0,0,0,61.437,71.48785a4.50232,4.50232,0,0,0-8.54687-1.6123,1.50006,1.50006,0,0,0,2.69922,1.30957,1.50267,1.50267,0,0,1,2.85742.54A1.49949,1.49949,0,0,0,59.94044,73.10651Z"/><path class="cls-5" d="M75.12941,69.87555a4.50233,4.50233,0,0,0-8.54688,1.6123A1.4996,1.4996,0,0,0,67.959,73.10162c.04052.00342.08056.00489.12011.00489a1.49988,1.49988,0,0,0,1.49366-1.38135,1.50267,1.50267,0,0,1,2.85742-.54,1.50006,1.50006,0,0,0,2.69922-1.30957Z"/><path class="cls-5" d="M69.01759,86.52984a1.499,1.499,0,0,0-2.05225.53663A3.44827,3.44827,0,0,1,65.50978,88.424V84.08526a1.48728,1.48728,0,0,0,.81836.2605A1.50185,1.50185,0,0,0,67.78468,82.483a3.88817,3.88817,0,0,0-7.54981,0,1.49614,1.49614,0,0,0,2.27491,1.61389V88.424a3.44824,3.44824,0,0,1-1.45557-1.35748,1.49995,1.49995,0,1,0-2.58887,1.51562,6.407,6.407,0,0,0,11.08887,0A1.49994,1.49994,0,0,0,69.01759,86.52984Z"/></svg>