<?xml version="1.0" ?><svg height="58px" version="1.1" viewBox="0 0 34 58" width="34px" xmlns="http://www.w3.org/2000/svg" xmlns:xlink="http://www.w3.org/1999/xlink"><title/><desc/><defs/><g fill="none" fill-rule="evenodd" id="Page-1" stroke="none" stroke-width="1"><g id="016---Xmas-Tree"><polygon fill="#F4CD1E" id="Shape" points="17 0 18.834 3.663 22.934 4.251 19.967 7.102 20.667 11.129 17 9.228 13.333 11.129 14.033 7.102 11.066 4.251 15.166 3.663"/><rect fill="#936642" fill-rule="nonzero" height="7" id="Rectangle-path" width="4" x="15" y="44"/><polygon fill="#6D5A61" id="Shape" points="21 58 13 58 12 50 22 50"/><polygon fill="#5D9069" id="Shape" points="24 32 32 32 22 19 27 19 17 9 7 19 12 19 2 32 10 32 0 45 17 45 34 45"/><path d="M5.75391,43.15137 C4.72154417,43.1397186 3.70461248,42.8992444 2.77637,42.44727 C2.53110874,42.3230221 2.43215518,42.0240806 2.55484479,41.7780361 C2.6775344,41.5319916 2.97584216,41.4311437 3.22266,41.55227 C3.37012,41.626 6.85547,43.3174 8.58398,40.72268 C8.6822033,40.5720088 8.85378295,40.4857029 9.03330866,40.4966642 C9.21283438,40.5076255 9.37263946,40.6141648 9.45180237,40.7756667 C9.53096528,40.9371686 9.51728623,41.1287441 9.41598,41.27736 C8.60743637,42.4999397 7.2184648,43.2107253 5.75391,43.15137 Z" fill="#DADCDA" fill-rule="nonzero" id="Shape"/><path d="M16.11719,41 C15.0057214,40.9838602 13.9024584,40.8067259 12.8418,40.47412 C12.6723257,40.4176006 12.5458777,40.274961 12.5100878,40.0999323 C12.4742979,39.9249035 12.5346034,39.7440766 12.6682878,39.6255673 C12.8019722,39.5070579 12.9887257,39.4688706 13.1582,39.52539 C13.19043,39.53613 16.39062,40.57959 18.28027,39.54199 C18.9157041,39.1954693 19.3669818,38.5874629 19.51465,37.87891 C19.5822416,37.6116911 19.85326,37.4495017 20.1206972,37.5162246 C20.3881343,37.5829475 20.5512035,37.8534375 20.48535,38.12109 C20.2701804,39.1009661 19.6406917,39.9393967 18.75977,40.41943 C17.9407733,40.8293513 17.03259,41.0288775 16.11719,41 L16.11719,41 Z" fill="#DADCDA" fill-rule="nonzero" id="Shape"/><path d="M24.77246,38.65869 C24.4291454,38.6601239 24.0895029,38.5880348 23.77637,38.44727 C23.5300575,38.324167 23.4296134,38.0251001 23.5516818,37.7782732 C23.6737503,37.5314463 23.9723931,37.4297482 24.21973,37.55078 C24.5573188,37.6938253 24.9380579,37.6961113 25.27734,37.55713 C25.9130195,37.1829463 26.3649503,36.561784 26.52534,35.8418 C26.6127115,35.5796802 26.8960301,35.4380186 27.15815,35.52539 C27.4202698,35.6127615 27.5619314,35.8960801 27.47456,36.1582 C27.2368198,37.1648443 26.568704,38.0161486 25.64741,38.48633 C25.3699916,38.6009584 25.0726264,38.6595376 24.77246,38.65869 Z" fill="#DADCDA" fill-rule="nonzero" id="Shape"/><path d="M8.1084,29.396 C6.91186576,29.3821807 5.74158139,29.0434427 4.72266,28.416 C4.49276595,28.2630972 4.43035221,27.952779 4.583255,27.722885 C4.73615779,27.492991 5.04647595,27.4305772 5.27637,27.58348 C6.93955489,28.6347634 9.05928983,28.6349503 10.72266,27.58396 C10.8712759,27.4826538 11.0628514,27.4689747 11.2243533,27.5481376 C11.3858552,27.6273005 11.4923945,27.7871056 11.5033558,27.9666313 C11.5143171,28.1461571 11.4280112,28.3177367 11.27734,28.41596 C10.3435953,29.0538381 9.23922592,29.3953802 8.1084,29.396 L8.1084,29.396 Z" fill="#DADCDA" fill-rule="nonzero" id="Shape"/><path d="M15,17.5 C12.81836,17.5 10.73438,15.44141 10.64648,15.35352 C10.4533697,15.1579022 10.4543272,14.8431015 10.6486238,14.648662 C10.8429204,14.4542225 11.1577203,14.4530336 11.35348,14.646 C11.37207,14.66455 13.23438,16.5 15,16.5 C15.2761424,16.5 15.5,16.7238576 15.5,17 C15.5,17.2761424 15.2761424,17.5 15,17.5 Z" fill="#DADCDA" fill-rule="nonzero" id="Shape"/><path d="M19,17.5 C18.7238576,17.5002761 18.4997762,17.2766424 18.4995,17.0005 C18.4992239,16.7243576 18.7228576,16.5002762 18.999,16.5 C19.02635,16.5 21.70506,16.47168 22.55271,14.77637 C22.6762174,14.5293496 22.9765896,14.4292226 23.22361,14.55273 C23.4706304,14.6762375 23.5707574,14.9766096 23.44725,15.22363 C22.32227,17.47412 19.13477,17.5 19,17.5 Z" fill="#DADCDA" fill-rule="nonzero" id="Shape"/><path d="M15,28.5 C14.7238576,28.5002761 14.4997762,28.2766424 14.4995,28.0005 C14.4992239,27.7243576 14.7228576,27.5002762 14.999,27.5 C16.0443881,27.4814677 17.06122,27.1557704 17.92283,26.56348 C18.1364068,26.3881931 18.4516431,26.4192332 18.62693,26.63281 C18.8022169,26.8463868 18.7711768,27.1616231 18.5576,27.33691 C17.5176893,28.0775366 16.2765825,28.483293 15,28.5 L15,28.5 Z" fill="#DADCDA" fill-rule="nonzero" id="Shape"/><path d="M24.65039,27.39355 C23.5555865,27.4403323 22.4833627,27.0728148 21.64746,26.36426 C21.5529719,26.2705084 21.4998798,26.1428765 21.5,26.00977 C21.4987998,25.797323 21.6314637,25.6071241 21.8312476,25.5348637 C22.0310315,25.4626033 22.2546704,25.52393 22.38965,25.68799 C22.65332,25.91357 24.26953,27.11768 27.34765,25.75293 C27.5110059,25.6802775 27.7007292,25.7004257 27.8451826,25.8057669 C27.9896359,25.9111081 28.0668107,26.0855929 28.0475667,26.2633377 C28.0283227,26.4410824 27.9155918,26.5950066 27.75194,26.66699 C26.7805864,27.1243018 25.7237919,27.3718634 24.65039,27.39355 Z" fill="#DADCDA" fill-rule="nonzero" id="Shape"/><circle cx="13" cy="28" fill="#D77EB0" fill-rule="nonzero" id="Oval" r="2"/><circle cx="20" cy="26" fill="#ED634C" fill-rule="nonzero" id="Oval" r="2"/><circle cx="11" cy="40" fill="#36B6D6" fill-rule="nonzero" id="Oval" r="2"/><circle cx="22" cy="38" fill="#9C63AD" fill-rule="nonzero" id="Oval" r="2"/><circle cx="17" cy="17" fill="#F4CD1E" fill-rule="nonzero" id="Oval" r="2"/></g></g></svg>